<?xml version="1.0" encoding="UTF-8"?> <svg xmlns="http://www.w3.org/2000/svg" width="102" height="42" viewBox="0 0 102 42" fill="none"> <path d="M1.71704 41.7832L0 37.3459H1.06109L2.18007 40.3169L3.35691 37.3459H4.09003L5.28618 40.3169L6.36656 37.3459H7.3119L5.59486 41.7832H4.90032L3.68489 38.7156L2.45016 41.7832H1.71704Z" fill="#413A34"></path> <path d="M7.48553 38.3897C7.48553 37.9846 7.5627 37.6952 7.71704 37.5602C7.87138 37.4251 8.16077 37.3479 8.58521 37.3479H11.865C12.2894 37.3479 12.5788 37.4251 12.7331 37.5602C12.8875 37.6952 12.9646 37.9846 12.9646 38.3897V40.7241C12.9646 41.1293 12.8875 41.4187 12.7331 41.5537C12.5788 41.6888 12.2894 41.766 11.865 41.766H8.58521C8.16077 41.766 7.87138 41.6888 7.71704 41.5537C7.5627 41.4187 7.48553 41.1293 7.48553 40.7241V38.3897V38.3897ZM8.50804 40.9364H11.9228V38.1196H8.50804V40.9364Z" fill="#413A34"></path> <path d="M13.93 41.7852V37.3479H17.7306C18.4059 37.3479 18.7338 37.6373 18.7338 38.2161V39.2579C18.7338 39.8367 18.4059 40.1261 17.7306 40.1261H17.1518L19.1969 41.8045H17.7113L15.9171 40.1261H14.9332V41.8045H13.93V41.7852ZM17.2676 38.1004H14.9525V39.3544H17.2869C17.4412 39.3544 17.557 39.3351 17.6149 39.2965C17.692 39.2386 17.7499 39.1422 17.7499 38.9878V38.4476C17.7499 38.2933 17.7113 38.1968 17.6149 38.1389C17.5377 38.1004 17.4412 38.1004 17.2676 38.1004Z" fill="#413A34"></path> <path d="M19.6395 41.7852V37.3479H20.6813V40.9557H24.0189V41.7852H19.6395Z" fill="#413A34"></path> <path d="M24.3084 41.7852V37.3479H27.1637C27.9933 37.3479 28.6106 37.5409 29.0544 37.9267C29.4981 38.3126 29.7103 38.8528 29.7103 39.5473C29.7103 39.991 29.6139 40.3962 29.4016 40.7434C29.1894 41.1293 28.8807 41.3994 28.4949 41.5537C28.1476 41.7081 27.6074 41.7852 26.8936 41.7852H24.3084V41.7852ZM25.3502 40.9364H26.6814C27.3566 40.9364 27.8582 40.8399 28.1476 40.6277C28.4756 40.4155 28.6299 40.0296 28.6299 39.5087C28.6299 38.5827 28.1476 38.1196 27.1637 38.1196H25.3309V40.9364H25.3502Z" fill="#413A34"></path> <path d="M32.4309 38.3897C32.4309 37.9846 32.5081 37.6952 32.6624 37.5602C32.8168 37.4251 33.1061 37.3479 33.5306 37.3479H36.8103C37.2348 37.3479 37.5242 37.4251 37.6785 37.5602C37.8328 37.6952 37.91 37.9846 37.91 38.3897V40.7241C37.91 41.1293 37.8328 41.4187 37.6785 41.5537C37.5242 41.6888 37.2348 41.766 36.8103 41.766H33.5306C33.1061 41.766 32.8168 41.6888 32.6624 41.5537C32.5081 41.4187 32.4309 41.1293 32.4309 40.7241V38.3897ZM33.4534 40.9364H36.8682V38.1196H33.4534V40.9364Z" fill="#413A34"></path> <path d="M38.8749 41.7852V37.3479H43.3701V38.1196H39.9167V39.2965H41.7881V40.1068H39.9167V41.7852H38.8749V41.7852Z" fill="#413A34"></path> <path d="M49.3125 38.1197H46.5151V40.9364H49.3125V39.9718L50.3543 40.184V40.7049C50.3543 41.11 50.2771 41.3994 50.1228 41.5345C49.9684 41.6695 49.679 41.7467 49.2546 41.7467H46.6115C46.1871 41.7467 45.8977 41.6695 45.7433 41.5345C45.589 41.3994 45.5118 41.11 45.5118 40.7049V38.3705C45.5118 37.9653 45.589 37.6759 45.7433 37.5409C45.8977 37.4058 46.1871 37.3287 46.6115 37.3287H49.2546C49.679 37.3287 49.9684 37.4058 50.1228 37.5409C50.2771 37.6759 50.3543 37.9653 50.3543 38.3705V38.7949L49.3125 38.9493V38.1197Z" fill="#413A34"></path> <path d="M51.1831 38.3897C51.1831 37.9846 51.2602 37.6952 51.4146 37.5602C51.5689 37.4251 51.8583 37.3479 52.2827 37.3479H55.5625C55.9869 37.3479 56.2763 37.4251 56.4307 37.5602C56.585 37.6952 56.6622 37.9846 56.6622 38.3897V40.7241C56.6622 41.1293 56.585 41.4187 56.4307 41.5537C56.2763 41.6888 55.9869 41.766 55.5625 41.766H52.2827C51.8583 41.766 51.5689 41.6888 51.4146 41.5537C51.2602 41.4187 51.1831 41.1293 51.1831 40.7241V38.3897ZM52.2056 40.9364H55.6204V38.1196H52.2056V40.9364Z" fill="#413A34"></path> <path d="M57.6083 41.7852V37.3479H58.4379L60.5215 40.0296L62.5665 37.3479H63.3961V41.7852H62.4315V39.0457C62.4315 38.9299 62.4508 38.7756 62.4701 38.5634C62.3543 38.7949 62.2772 38.9492 62.2193 39.0264L60.5408 41.2451H60.3672L58.6887 39.0071C58.573 38.8528 58.4765 38.6984 58.4186 38.5441C58.4379 38.7177 58.4379 38.8721 58.4379 39.0264V41.766H57.6083V41.7852Z" fill="#413A34"></path> <path d="M64.3794 41.7852V37.3479H65.209L67.2926 40.0296L69.3376 37.3479H70.1672V41.7852H69.2026V39.0457C69.2026 38.9299 69.2219 38.7756 69.2411 38.5634C69.1254 38.7949 69.0482 38.9492 68.9903 39.0264L67.3119 41.2451H67.0997L65.4212 39.0071C65.3054 38.8528 65.209 38.6984 65.1511 38.5441C65.1704 38.7177 65.1704 38.8721 65.1704 39.0264V41.766H64.3794V41.7852Z" fill="#413A34"></path> <path d="M72.1929 37.3287V40.9364H75.1447V37.3287H76.1865V40.7242C76.1865 41.1293 76.1094 41.4187 75.955 41.5538C75.8007 41.6888 75.5113 41.766 75.0868 41.766H72.2701C71.8457 41.766 71.5563 41.6888 71.402 41.5538C71.2476 41.4187 71.1704 41.1293 71.1704 40.7242V37.3287H72.1929Z" fill="#413A34"></path> <path d="M77.2291 41.7852V37.3479H77.9429L81.0683 39.9717C81.2998 40.1647 81.4542 40.319 81.5699 40.4541C81.5506 40.0489 81.5314 39.7788 81.5314 39.6823V37.3479H82.4574V41.7852H81.7436L78.4831 39.0457C78.3481 38.9299 78.213 38.8142 78.1166 38.6791C78.1359 38.9685 78.1552 39.2 78.1552 39.393V41.8045H77.2291V41.7852Z" fill="#413A34"></path> <path d="M83.5177 41.7852V37.3479H84.5595V41.7852H83.5177Z" fill="#413A34"></path> <path d="M87.6851 38.1197V41.766H86.6433V38.1197H85.1771V37.3287H89.132V38.1197H87.6851Z" fill="#413A34"></path> <path d="M89.8076 41.7852V37.3479H90.8494V41.7852H89.8076Z" fill="#413A34"></path> <path d="M91.891 41.7852V37.3479H96.4441V38.1004H92.9328V39.0843H94.9779V39.8367H92.9328V40.9364H96.4827V41.766H91.891V41.7852Z" fill="#413A34"></path> <path d="M101.035 38.1004H98.1222V39.065H100.9C101.325 39.065 101.614 39.1422 101.768 39.2772C101.923 39.4122 102 39.7016 102 40.1068V40.7241C102 41.1293 101.923 41.4187 101.768 41.5537C101.614 41.6888 101.325 41.766 100.9 41.766H98.1608C97.7363 41.766 97.4469 41.6888 97.2926 41.5537C97.1383 41.4187 97.0611 41.1293 97.0611 40.7241V40.6084L97.9678 40.4155V40.9364H101.113V39.9139H98.3344C97.91 39.9139 97.6206 39.8367 97.4662 39.7016C97.3119 39.5666 97.2347 39.2772 97.2347 38.8721V38.3897C97.2347 37.9846 97.3119 37.6952 97.4662 37.5602C97.6206 37.4251 97.91 37.3479 98.3344 37.3479H100.862C101.267 37.3479 101.556 37.4251 101.711 37.5602C101.865 37.6952 101.961 37.946 101.961 38.3319V38.4283L101.055 38.6405V38.1004H101.035Z" fill="#413A34"></path> <path fill-rule="evenodd" clip-rule="evenodd" d="M0 0H33.3296V33.3296H0V0ZM3.38219 8.58602L9.61974 24.7435H12.2125L16.7215 13.5648L21.1367 24.7435H23.673L29.9106 8.58602H26.5663L22.6585 19.4078L18.2809 8.58602H15.6506L11.367 19.4078L7.27127 8.58602H3.38219Z" fill="#474546"></path> <path fill-rule="evenodd" clip-rule="evenodd" d="M34.3349 2.28882e-05H67.6645V33.3296H34.3349V2.28882e-05ZM42.2072 9.39387C41.6435 9.90114 41.3617 10.9157 41.3617 12.4187V20.9296C41.3617 22.4138 41.6435 23.4284 42.2072 23.9544C42.7708 24.4805 43.8229 24.7435 45.3635 24.7435H57.2374C58.778 24.7435 59.8301 24.4805 60.3938 23.9544C60.9574 23.4472 61.2392 22.4326 61.2392 20.9296V12.4187C61.2392 10.9345 60.9574 9.91993 60.3938 9.39387C59.8301 8.86781 58.778 8.60478 57.2374 8.60478H45.3635C43.8229 8.60478 42.7708 8.86781 42.2072 9.39387ZM57.5004 21.7187H45.1193V11.4793H57.5004V21.7187Z" fill="#474546"></path> <path fill-rule="evenodd" clip-rule="evenodd" d="M68.6704 1.52588e-05H102V33.3296H68.6704V1.52588e-05ZM80.262 11.4793H90.4074V14.5605L94.165 13.9593V12.4187C94.165 10.9157 93.8831 9.90116 93.3195 9.3751C92.7559 8.84904 91.7038 8.58601 90.1632 8.58601H80.525C78.9844 8.58601 77.9323 8.84904 77.3687 9.3751C76.805 9.90116 76.5232 10.9157 76.5232 12.4187V20.9296C76.5232 22.4326 76.805 23.4472 77.3687 23.9732C77.9323 24.4993 78.9844 24.7623 80.525 24.7623H90.1632C91.7038 24.7623 92.7559 24.4993 93.3195 23.9732C93.8831 23.4472 94.165 22.4326 94.165 20.9296V19.0133L90.4074 18.2242V21.7187H80.262V11.4793Z" fill="#474546"></path> </svg> 